<?xml version="1.0" encoding="UTF-8"?>
<svg id="Layer_2" data-name="Layer 2" xmlns="http://www.w3.org/2000/svg" viewBox="0 0 564.59 113.86">
  <defs>
    <style>
      .cls-1 {
        fill: #01a02f;
      }

      .cls-2 {
        fill: #fff;
      }
    </style>
  </defs>
  <g id="Layer_1-2" data-name="Layer 1">
    <g>
      <g>
        <path class="cls-2" d="M194.25,38.33h-9.96c-.61-5.58-4.3-8.95-9.89-8.95-7.26,0-11.7,6.19-11.7,16.28s4.37,16.28,11.5,16.28c5.65,0,9.35-3.3,10.09-9.15h10.16c-.94,11.37-8.54,17.89-20.25,17.89-13.45,0-21.73-9.48-21.73-25.02s8.34-25.02,21.93-25.02c11.84,0,19.37,7.26,19.84,17.69Z"/>
        <path class="cls-2" d="M233.13,52.52c0,11.1-6.79,18.16-17.49,18.16s-17.49-7.06-17.49-18.16,6.79-18.16,17.49-18.16,17.49,7.06,17.49,18.16Zm-25.09,0c0,6.66,2.96,10.9,7.6,10.9s7.6-4.24,7.6-10.9-2.96-10.9-7.6-10.9-7.6,4.24-7.6,10.9Z"/>
        <path class="cls-2" d="M259.97,35.3v8.14c-1.08-.2-2.02-.34-2.96-.34-5.79,0-8.88,3.63-8.88,10.36v16.14h-9.42V35.44h8.68v4.84h.13c2.29-3.7,5.31-5.38,9.35-5.38,.94,0,2.15,.13,3.09,.4Z"/>
        <path class="cls-2" d="M284.45,59.25h9.62c-1.35,6.25-7.26,11.43-16.34,11.43-10.76,0-17.02-7.53-17.02-18.43,0-10.09,6.25-17.89,16.95-17.89,7.87,0,13.65,4.44,15.81,11.37,.74,2.35,1.08,4.98,1.08,8.74h-24.55c.27,7.06,3.7,9.55,7.74,9.55,3.77,0,6.25-2.02,6.73-4.78Zm-14.26-10.69h14.93c-.61-5.18-3.7-7.53-7.47-7.53s-6.73,2.35-7.47,7.53Z"/>
        <path class="cls-2" d="M332.81,21.72c12.04,0,17.49,4.98,17.49,13.52,0,5.85-3.36,10.22-8.74,11.7v.13c3.36,1.21,4.98,3.23,7.2,9.28l4.78,13.25h-10.76l-3.83-11.37c-1.75-5.11-3.7-6.93-8.41-6.93h-5.45v18.29h-9.89V21.72h17.62Zm-7.74,21.73h7c5.99,0,8.27-2.69,8.27-7.06,0-4.64-3.16-6.66-8.81-6.66h-6.46v13.72Z"/>
        <path class="cls-2" d="M378.55,59.25h9.62c-1.35,6.25-7.26,11.43-16.34,11.43-10.76,0-17.02-7.53-17.02-18.43,0-10.09,6.25-17.89,16.95-17.89,7.87,0,13.65,4.44,15.81,11.37,.74,2.35,1.08,4.98,1.08,8.74h-24.55c.27,7.06,3.7,9.55,7.74,9.55,3.77,0,6.25-2.02,6.73-4.78Zm-14.26-10.69h14.93c-.61-5.18-3.7-7.53-7.47-7.53s-6.73,2.35-7.47,7.53Z"/>
        <path class="cls-2" d="M416.48,40.01h.13v-4.57h8.88v32.02c0,10.36-6.39,15.2-16.21,15.2s-14.6-4.17-15.13-10.9h9.42c.2,2.62,2.35,4.17,5.92,4.17,4.24,0,6.86-2.15,6.86-8.81v-3.03h-.13c-2.56,3.56-5.45,5.11-9.55,5.11-8.54,0-13.99-6.73-13.99-17.35s5.51-17.35,14.12-17.35c4.17,0,7.06,1.61,9.69,5.52Zm-13.99,11.84c0,5.92,2.69,9.62,6.86,9.62,4.44,0,7.26-3.83,7.26-9.62s-2.83-9.62-7.26-9.62c-4.17,0-6.86,3.7-6.86,9.62Z"/>
        <path class="cls-2" d="M433.3,29.79v-8.07h9.42v8.07h-9.42Zm0,39.82V35.44h9.42v34.17h-9.42Z"/>
        <path class="cls-2" d="M477.55,45.93h-9.01c0-3.5-2.02-4.98-5.38-4.98-3.03,0-4.64,1.21-4.64,3.16,0,2.42,2.15,3.03,7.33,4.37,6.12,1.61,12.85,3.16,12.85,11.5,0,6.39-5.78,10.69-15.07,10.69s-15.33-3.9-15.33-12.17h9.55c0,3.43,2.08,5.38,5.99,5.38,3.3,0,4.98-1.28,4.98-3.3,0-2.96-2.56-3.56-7.87-4.98-5.72-1.48-11.84-2.82-11.84-10.76,0-6.12,5.65-10.49,14.12-10.49,8.95,0,14.33,3.97,14.33,11.57Z"/>
        <path class="cls-2" d="M502.17,62.21v7.2c-1.28,.4-3.36,.67-4.98,.67-7.87,0-11.3-3.16-11.3-11.1v-16.55h-5.52v-7h5.52v-8.88h9.42v8.88h6.52v7h-6.52v14.86c0,3.77,1.21,5.25,4.44,5.25,.87,0,1.82-.13,2.42-.34Z"/>
        <path class="cls-2" d="M527.67,59.25h9.62c-1.35,6.25-7.26,11.43-16.34,11.43-10.76,0-17.02-7.53-17.02-18.43,0-10.09,6.25-17.89,16.95-17.89,7.87,0,13.65,4.44,15.81,11.37,.74,2.35,1.08,4.98,1.08,8.74h-24.55c.27,7.06,3.7,9.55,7.74,9.55,3.77,0,6.25-2.02,6.73-4.78Zm-14.26-10.69h14.93c-.61-5.18-3.7-7.53-7.47-7.53s-6.73,2.35-7.47,7.53Z"/>
        <path class="cls-2" d="M564.59,35.3v8.14c-1.08-.2-2.02-.34-2.96-.34-5.79,0-8.88,3.63-8.88,10.36v16.14h-9.42V35.44h8.68v4.84h.13c2.29-3.7,5.31-5.38,9.35-5.38,.94,0,2.15,.13,3.09,.4Z"/>
      </g>
      <g>
        <rect class="cls-1" y="64.31" width="88.38" height="15.47"/>
        <rect class="cls-1" y="98.38" width="88.38" height="15.47"/>
        <rect class="cls-1" y="30.23" width="88.38" height="15.47"/>
        <polygon class="cls-1" points="115.13 0 115.13 91.02 101.72 105.87 101.72 13.41 8.19 13.41 24.17 0 115.13 0"/>
      </g>
    </g>
  </g>
</svg>