<?xml version="1.0" encoding="UTF-8"?>
<svg id="Layer_2" data-name="Layer 2" xmlns="http://www.w3.org/2000/svg" viewBox="0 0 330.68 330.68">
  <defs>
    <style>
      .cls-1 {
        fill: #01a02f;
      }

      .cls-2 {
        fill: #02322f;
      }

      .cls-3 {
        fill: #014637;
      }

      .cls-4 {
        fill: #023727;
      }

      .cls-4, .cls-5 {
        opacity: .8;
      }

      .cls-5 {
        fill: #008354;
      }
    </style>
  </defs>
  <g id="Layer_1-2" data-name="Layer 1">
    <g>
      <rect class="cls-3" x="56.24" width="274.43" height="274.43"/>
      <polygon class="cls-5" points="274.43 56.24 330.68 0 330.68 274.43 274.43 330.68 274.43 56.24"/>
      <polygon class="cls-4" points=".17 56.24 56.41 0 56.41 274.43 .17 330.68 .17 56.24"/>
      <rect class="cls-2" y="56.24" width="274.43" height="274.43"/>
      <g>
        <polygon class="cls-1" points="42.42 285 91.73 284.88 42.32 235.47 42.42 285"/>
        <polygon class="cls-1" points="125.26 274.64 115.12 284.98 228.24 284.98 228.24 274.64 125.26 274.64"/>
        <polygon class="cls-1" points="161.17 116 54.43 222.18 103.8 271.81 210.67 165.5 161.17 116"/>
        <path class="cls-1" d="M216.65,109.68c-11.47-11.48-28.94-13.4-42.42-5.76l48.18,48.17c7.64-13.47,5.72-30.94-5.76-42.41Z"/>
      </g>
    </g>
  </g>
</svg>