<?xml version="1.0" encoding="UTF-8"?>
<svg id="Layer_2" data-name="Layer 2" xmlns="http://www.w3.org/2000/svg" viewBox="0 0 539.41 108.82">
  <defs>
    <style>
      .cls-1 {
        fill: #fff;
        font-family: NeueHaasUnicaW1G-Regular, 'Neue Haas Unica W1G';
        font-size: 52.87px;
      }

      .cls-2 {
        fill: #01a02f;
      }

      .cls-3 {
        fill: #02322f;
      }

      .cls-4 {
        fill: #014637;
      }

      .cls-5 {
        letter-spacing: -.02em;
      }

      .cls-6 {
        letter-spacing: -.02em;
      }

      .cls-7 {
        letter-spacing: 0em;
      }

      .cls-8 {
        letter-spacing: 0em;
      }

      .cls-9 {
        fill: #023727;
      }

      .cls-9, .cls-10 {
        opacity: .8;
      }

      .cls-10 {
        fill: #008354;
      }
    </style>
  </defs>
  <g id="Layer_1-2" data-name="Layer 1">
    <g>
      <text class="cls-1" transform="translate(151.24 77.3)"><tspan x="0" y="0">Clim</tspan><tspan class="cls-7" x="107.85" y="0">a</tspan><tspan class="cls-6" x="135.4" y="0">t</tspan><tspan x="151.47" y="0">e </tspan><tspan class="cls-8" x="192.71" y="0">Re</tspan><tspan x="254.57" y="0">gis</tspan><tspan class="cls-5" x="323.88" y="0">t</tspan><tspan x="339.96" y="0">er</tspan></text>
      <g>
        <rect class="cls-4" x="18.53" width="90.41" height="90.31"/>
        <polygon class="cls-10" points="90.41 18.51 108.93 0 108.93 90.31 90.41 108.82 90.41 18.51"/>
        <polygon class="cls-9" points=".05 18.51 18.58 0 18.58 90.31 .05 108.82 .05 18.51"/>
        <rect class="cls-3" y="18.51" width="90.41" height="90.31"/>
        <g>
          <polygon class="cls-2" points="13.97 93.79 30.22 93.75 13.94 77.49 13.97 93.79"/>
          <polygon class="cls-2" points="41.26 90.38 37.92 93.78 75.19 93.78 75.19 90.38 41.26 90.38"/>
          <polygon class="cls-2" points="53.1 38.17 17.93 73.11 34.2 89.45 69.4 54.46 53.1 38.17"/>
          <path class="cls-2" d="M71.37,36.09c-3.78-3.78-9.53-4.41-13.97-1.9l15.87,15.85c2.52-4.43,1.88-10.18-1.9-13.96Z"/>
        </g>
      </g>
    </g>
  </g>
</svg>